<svg id="Layer_1" data-name="Layer 1" xmlns="http://www.w3.org/2000/svg" viewBox="0 0 200 200"><defs><style>.cls-1{fill:#998542;}</style></defs><title>335 [Converted]</title><path class="cls-1" d="M121.37,44.33H78.64A34.31,34.31,0,0,0,44.33,78.64v42.73a34.31,34.31,0,0,0,34.31,34.3h42.73a34.3,34.3,0,0,0,34.3-34.3V78.64A34.31,34.31,0,0,0,121.37,44.33ZM145,117.26A27.71,27.71,0,0,1,117.27,145H82.74A27.71,27.71,0,0,1,55,117.26V82.74A27.72,27.72,0,0,1,82.74,55h34.53A27.72,27.72,0,0,1,145,82.74Z"/><path class="cls-1" d="M101.49,70.87a29.33,29.33,0,1,0,29.33,29.32A29.32,29.32,0,0,0,101.49,70.87Zm0,47a17.65,17.65,0,1,1,17.64-17.65A17.65,17.65,0,0,1,101.49,117.84Z"/><path class="cls-1" d="M136.25,70.41A7.46,7.46,0,1,1,128.79,63,7.47,7.47,0,0,1,136.25,70.41Z"/></svg>